<svg xmlns="http://www.w3.org/2000/svg" viewBox="0 0 64 64">
  <rect width="64" height="64" rx="16" fill="#a33d2e"/>
  <path d="M16 14h24a8 8 0 0 1 8 8v28H24a8 8 0 0 1-8-8V14Z" fill="#fff4df"/>
  <path d="M24 14v28a8 8 0 0 1 8-8h16" fill="none" stroke="#cbbda5" stroke-width="2"/>
  <path d="M24 23h15M24 28h10" stroke="#716657" stroke-linecap="round" stroke-width="2.5"/>
  <path d="m39 17 1.9 4.1L45 23l-4.1 1.9L39 29l-1.9-4.1L33 23l4.1-1.9L39 17Z" fill="#d17a55"/>
  <circle cx="48" cy="46" r="8" fill="#26221c" stroke="#fff4df" stroke-width="2"/>
  <path d="M45 46h6M48 43v6" stroke="#fff4df" stroke-linecap="round" stroke-width="2"/>
</svg>
